<?xml version="1.0" encoding="utf-8"?>
<!-- Generator: Adobe Illustrator 18.0.0, SVG Export Plug-In . SVG Version: 6.00 Build 0)  -->
<!DOCTYPE svg PUBLIC "-//W3C//DTD SVG 1.1//EN" "http://www.w3.org/Graphics/SVG/1.1/DTD/svg11.dtd">
<svg version="1.1" id="Layer_1" xmlns="http://www.w3.org/2000/svg" xmlns:xlink="http://www.w3.org/1999/xlink" x="0px" y="0px"
	 viewBox="0 0 300 300" enable-background="new 0 0 300 300" xml:space="preserve">
<path fill="#FFFFFF" stroke="#000000" stroke-miterlimit="10" d="M64,161.5"/>
<path fill="#0E709B" d="M223.1,58.6c54.3,3.8,62.5,29,62.5,29s8.5,15.7,12.8,20.9c-6.5,24.6-22.9,22.6-26.5,15.1
	c-1.4,0.7-4.8,0-4.8,0s-11.5,6.8-21.8,10.5c-2.9,7.4-13.6,22.3-20.6,25.1c-3.8,1.5-40.6,6.1-40.6,6.1l-0.3-2.8
	c13.4-3,26.5-5.9,29.5-7.4l6.6-12c-95.3,44.1-108.1,36.7-125.5,43.8c-15.6,6.4-19.6,26.2-19.6,26.2s-17.2,55.6-55.2,12.5
	c-43.4-44,0.4-54.1,37-66.3C56.7,159.1,118.3,51.3,223.1,58.6z"/>
</svg>
